<?xml version="1.0" encoding="UTF-8" standalone="no"?>
<!-- Created with Inkscape (http://www.inkscape.org/) -->

<svg
   width="514.3634mm"
   height="88.194336mm"
   viewBox="0 0 514.3634 88.194336"
   version="1.1"
   id="svg5"
   inkscape:version="1.1.1 (3bf5ae0d25, 2021-09-20)"
   sodipodi:docname="mehrev-logo-rgb_positiv.svg"
   xmlns:inkscape="http://www.inkscape.org/namespaces/inkscape"
   xmlns:sodipodi="http://sodipodi.sourceforge.net/DTD/sodipodi-0.dtd"
   xmlns="http://www.w3.org/2000/svg"
   xmlns:svg="http://www.w3.org/2000/svg">
  <sodipodi:namedview
     id="namedview7"
     pagecolor="#505050"
     bordercolor="#ffffff"
     borderopacity="1"
     inkscape:pageshadow="0"
     inkscape:pageopacity="0"
     inkscape:pagecheckerboard="1"
     inkscape:document-units="mm"
     showgrid="false"
     fit-margin-top="0"
     fit-margin-left="0"
     fit-margin-right="0"
     fit-margin-bottom="0"
     inkscape:zoom="0.34965979"
     inkscape:cx="736.43012"
     inkscape:cy="-338.90085"
     inkscape:window-width="1459"
     inkscape:window-height="1056"
     inkscape:window-x="459"
     inkscape:window-y="1200"
     inkscape:window-maximized="1"
     inkscape:current-layer="layer1"
     width="400mm" />
  <defs
     id="defs2">
    <clipPath
       clipPathUnits="userSpaceOnUse"
       id="clipPath23">
      <path
         d="M 0,250 H 1458.038 V 0 H 0 Z"
         id="path21" />
    </clipPath>
  </defs>
  <g
     inkscape:label="Layer 1"
     inkscape:groupmode="layer"
     id="layer1"
     transform="translate(198.91673,-39.138497)">
    <g
       id="g19"
       clip-path="url(#clipPath23)"
       transform="matrix(0.35277777,0,0,-0.35277777,-198.91673,127.33294)">
      <g
         id="g25"
         transform="translate(0,246.4326)">
        <path
           d="m 0,0 v -239.298 h 21.014 c 0,0 -1.704,53.653 12.779,112.443 C 53.808,-45.607 34.645,0 34.645,0 Z"
           style="fill:#ab1f3d;fill-opacity:1;fill-rule:nonzero;stroke:none"
           id="path27" />
      </g>
      <g
         id="g29"
         transform="translate(36.6328,12.5571)">
        <path
           d="m 0,0 h 56.794 c 0,0 -23.312,57.361 -14.198,114.726 C 53.387,182.648 16.47,237.443 16.47,237.443 H 6.247 c 0,0 26.562,-36.928 7.252,-115.981 C -4.058,49.588 0,0 0,0"
           style="fill:#419bd6;fill-opacity:1;fill-rule:nonzero;stroke:none"
           id="path31" />
      </g>
      <g
         id="g33"
         transform="translate(76.957,237.3003)">
        <path
           d="M 0,0 C 0,0 33.982,-45.805 22.812,-113.727 10.118,-190.925 33.793,-237.3 33.793,-237.3 h 15.902 c 0,0 -21.865,46.803 -7.667,104.452 C 56.227,-75.2 58.783,-70.776 47.708,0 Z"
           style="fill:#65b332;fill-opacity:1;fill-rule:nonzero;stroke:none"
           id="path35" />
      </g>
      <g
         id="g37"
         transform="translate(138.0112,246.0044)">
        <path
           d="m 0,0 h 56.511 c 0,0 0.755,-61.196 -26.126,-125.571 -26.693,-63.927 -9.655,-110.73 -9.655,-110.73 h -7.931 c 0,0 -29.837,44.806 -11.095,120.434 C 19.651,-43.447 0,0 0,0"
           style="fill:#d2191b;fill-opacity:1;fill-rule:nonzero;stroke:none"
           id="path39" />
      </g>
      <g
         id="g41"
         transform="translate(212.9233,246.0044)">
        <path
           d="m 0,0 h 7.062 v -236.586 h -47.519 c 0,0 -13.124,46.521 13.821,112.442 C 0.814,-56.982 0,0 0,0"
           style="fill:#ec7a09;fill-opacity:1;fill-rule:nonzero;stroke:none"
           id="path43" />
      </g>
      <g
         id="g45"
         transform="translate(448.2139,126.4429)">
        <path
           d="m 0,0 c 0,15.317 -8.341,23.204 -20.929,23.204 -12.739,0 -21.08,-7.887 -21.08,-23.204 V -46.71 H -59.146 V 0 c 0,15.317 -8.341,23.204 -20.929,23.204 -12.739,0 -21.08,-7.887 -21.08,-23.204 v -46.71 h -17.289 v 83.563 h 17.289 v -9.555 c 5.611,6.825 14.711,10.919 24.719,10.919 13.195,0 24.266,-5.611 30.029,-16.53 5.156,10.161 16.986,16.53 29.118,16.53 19.564,0 34.427,-12.284 34.427,-35.639 V -46.71 H 0 Z"
           style="fill:#000000;fill-opacity:1;fill-rule:nonzero;stroke:none"
           id="path47" />
      </g>
      <g
         id="g49"
         transform="translate(496.584,129.021)">
        <path
           d="M 0,0 H 46.256 C 45.952,12.891 35.791,21.081 22.9,21.081 11.223,21.081 1.82,13.194 0,0 m 23.659,-50.653 c -23.962,0 -41.706,16.985 -41.706,43.222 0,26.237 16.985,43.07 41.706,43.07 23.81,0 40.644,-16.53 40.644,-41.098 0,-2.882 -0.152,-5.612 -0.607,-8.494 H -0.151 c 1.213,-13.8 11.071,-22.141 23.81,-22.141 10.615,0 16.53,5.156 19.715,11.677 H 62.028 C 57.327,-38.976 44.133,-50.653 23.659,-50.653"
           style="fill:#000000;fill-opacity:1;fill-rule:nonzero;stroke:none"
           id="path51" />
      </g>
      <g
         id="g53"
         transform="translate(574.834,191.9585)">
        <path
           d="m 0,0 h 17.289 v -38.369 c 5.763,6.976 15.166,11.071 25.934,11.071 18.653,0 33.213,-12.285 33.213,-35.64 v -49.288 H 59.298 v 46.71 c 0,15.318 -8.341,23.204 -20.929,23.204 -12.739,0 -21.08,-7.886 -21.08,-23.204 v -46.71 H 0 Z"
           style="fill:#000000;fill-opacity:1;fill-rule:nonzero;stroke:none"
           id="path55" />
      </g>
      <g
         id="g57"
         transform="translate(687.5098,79.7324)">
        <path
           d="M 0,0 H -17.289 V 83.563 H 0 V 71.431 c 4.854,8.34 13.194,13.497 25.023,13.497 V 67.032 H 20.625 C 7.887,67.032 0,61.725 0,43.98 Z"
           style="fill:#000000;fill-opacity:1;fill-rule:nonzero;stroke:none"
           id="path59" />
      </g>
      <g
         id="g61"
         transform="translate(799.123,149.6465)">
        <path
           d="m 0,0 c -12.891,0 -25.326,-9.706 -25.326,-27.753 0,-18.048 12.435,-28.512 25.326,-28.512 13.043,0 25.327,10.161 25.327,28.208 C 25.327,-10.161 13.043,0 0,0 m -3.64,15.014 c 14.105,0 23.811,-6.673 28.967,-13.497 V 13.649 H 42.768 V -69.914 H 25.327 v 12.436 c -5.308,-7.128 -15.317,-13.801 -29.269,-13.801 -21.688,0 -39.128,17.744 -39.128,43.526 0,25.781 17.44,42.767 39.43,42.767"
           style="fill:#000000;fill-opacity:1;fill-rule:nonzero;stroke:none"
           id="path63" />
      </g>
      <path
         d="m 861.602,191.958 h 17.289 V 79.732 h -17.289 z"
         style="fill:#000000;fill-opacity:1;fill-rule:nonzero;stroke:none"
         id="path65" />
      <g
         id="g67"
         transform="translate(928.9346,78.3677)">
        <path
           d="m 0,0 c -20.02,0 -34.123,11.829 -34.882,26.995 h 17.896 c 0.607,-6.825 7.128,-12.436 16.682,-12.436 10.01,0 15.318,4.246 15.318,10.009 0,16.379 -48.531,6.976 -48.531,37.611 0,13.346 12.436,24.113 32.152,24.113 18.957,0 31.392,-10.16 32.302,-26.843 H 13.648 c -0.606,7.28 -6.217,12.285 -15.62,12.285 -9.251,0 -14.104,-3.792 -14.104,-9.403 C -16.076,45.497 31.09,54.9 31.999,24.72 31.999,10.616 19.715,0 0,0"
           style="fill:#000000;fill-opacity:1;fill-rule:nonzero;stroke:none"
           id="path69" />
      </g>
      <path
         d="m 1012.946,191.958 h 17.289 V 79.732 h -17.289 z"
         style="fill:#000000;fill-opacity:1;fill-rule:nonzero;stroke:none"
         id="path71" />
      <g
         id="g73"
         transform="translate(1062.2324,129.021)">
        <path
           d="M 0,0 H 46.256 C 45.952,12.891 35.791,21.081 22.9,21.081 11.223,21.081 1.82,13.194 0,0 m 23.659,-50.653 c -23.962,0 -41.706,16.985 -41.706,43.222 0,26.237 16.985,43.07 41.706,43.07 23.81,0 40.644,-16.53 40.644,-41.098 0,-2.882 -0.152,-5.612 -0.607,-8.494 H -0.151 c 1.213,-13.8 11.071,-22.141 23.81,-22.141 10.615,0 16.53,5.156 19.715,11.677 H 62.028 C 57.327,-38.976 44.133,-50.653 23.659,-50.653"
           style="fill:#000000;fill-opacity:1;fill-rule:nonzero;stroke:none"
           id="path75" />
      </g>
      <g
         id="g77"
         transform="translate(1157.7715,79.7324)">
        <path
           d="M 0,0 H -17.289 V 83.563 H 0 V 71.431 c 4.854,8.34 13.194,13.497 25.023,13.497 V 67.032 H 20.625 C 7.887,67.032 0,61.725 0,43.98 Z"
           style="fill:#000000;fill-opacity:1;fill-rule:nonzero;stroke:none"
           id="path79" />
      </g>
      <g
         id="g81"
         transform="translate(1254.9795,126.4429)">
        <path
           d="m 0,0 c 0,15.317 -8.341,23.204 -20.929,23.204 -12.739,0 -21.08,-7.887 -21.08,-23.204 v -46.71 h -17.289 v 83.563 h 17.289 v -9.555 c 5.612,6.825 14.863,10.919 24.872,10.919 19.564,0 34.275,-12.284 34.275,-35.639 V -46.71 H 0 Z"
           style="fill:#000000;fill-opacity:1;fill-rule:nonzero;stroke:none"
           id="path83" />
      </g>
      <g
         id="g85"
         transform="translate(1303.3525,129.021)">
        <path
           d="M 0,0 H 46.256 C 45.952,12.891 35.791,21.081 22.9,21.081 11.223,21.081 1.82,13.194 0,0 m 23.659,-50.653 c -23.962,0 -41.706,16.985 -41.706,43.222 0,26.237 16.985,43.07 41.706,43.07 23.81,0 40.644,-16.53 40.644,-41.098 0,-2.882 -0.152,-5.612 -0.607,-8.494 H -0.151 c 1.213,-13.8 11.071,-22.141 23.81,-22.141 10.615,0 16.53,5.156 19.715,11.677 H 62.028 C 57.327,-38.976 44.133,-50.653 23.659,-50.653"
           style="fill:#000000;fill-opacity:1;fill-rule:nonzero;stroke:none"
           id="path87" />
      </g>
      <g
         id="g89"
         transform="translate(1440.9004,126.4429)">
        <path
           d="m 0,0 c 0,15.317 -8.341,23.204 -20.929,23.204 -12.739,0 -21.08,-7.887 -21.08,-23.204 v -46.71 h -17.289 v 83.563 h 17.289 v -9.555 c 5.612,6.825 14.863,10.919 24.872,10.919 19.564,0 34.275,-12.284 34.275,-35.639 V -46.71 H 0 Z"
           style="fill:#000000;fill-opacity:1;fill-rule:nonzero;stroke:none"
           id="path91" />
      </g>
    </g>
  </g>
</svg>
